<svg xmlns="http://www.w3.org/2000/svg" width="17" height="35" viewBox="0 0 17 35" fill="none">
<g clip-path="url(#clip0_1_3)">
<path d="M16.3413 28.8838C16.7581 29.3167 16.992 29.9017 16.992 30.5113C16.992 31.1208 16.7581 31.7058 16.3413 32.1388C16.1358 32.3527 15.8911 32.5226 15.6213 32.6385C15.3516 32.7544 15.0622 32.8141 14.7699 32.8141C14.4776 32.8141 14.1882 32.7544 13.9184 32.6385C13.6487 32.5226 13.404 32.3527 13.1985 32.1388L0.650331 19.1319C0.233519 18.6989 -0.000326157 18.114 -0.000326157 17.5044C-0.000326157 16.8948 0.233519 16.3099 0.650331 15.8769L13.2091 2.86125C13.4146 2.64762 13.6592 2.47804 13.9287 2.36231C14.1982 2.24657 14.4874 2.18699 14.7795 2.18699C15.0715 2.18699 15.3607 2.24657 15.6302 2.36231C15.8998 2.47804 16.1443 2.64762 16.3498 2.86125C16.7666 3.29425 17.0005 3.87917 17.0005 4.48875C17.0005 5.09833 16.7666 5.68325 16.3498 6.11625L5.36358 17.5044L16.3413 28.8838Z" fill="white"/>
</g>
<defs>
<clipPath id="clip0_1_3">
<rect width="17" height="35" fill="white" transform="matrix(-1 0 0 -1 17 35)"/>
</clipPath>
</defs>
</svg>