<svg width="24" height="24" viewBox="0 0 24 24" fill="none" xmlns="http://www.w3.org/2000/svg">
<g id="Frame">
<path id="Vector" d="M13.333 10.667H18.667C19.0205 10.667 19.3596 10.8074 19.6096 11.0574C19.8596 11.3074 20 11.6465 20 12C20 12.3535 19.8596 12.6926 19.6096 12.9426C19.3596 13.1926 19.0205 13.333 18.667 13.333H13.333V18.667C13.333 19.0205 13.1926 19.3596 12.9426 19.6096C12.6926 19.8596 12.3535 20 12 20C11.6465 20 11.3074 19.8596 11.0574 19.6096C10.8074 19.3596 10.667 19.0205 10.667 18.667V13.333H5.333C4.97947 13.333 4.64041 13.1926 4.39043 12.9426C4.14044 12.6926 4 12.3535 4 12C4 11.6465 4.14044 11.3074 4.39043 11.0574C4.64041 10.8074 4.97947 10.667 5.333 10.667H10.667V5.333C10.667 4.97947 10.8074 4.64041 11.0574 4.39043C11.3074 4.14044 11.6465 4 12 4C12.3535 4 12.6926 4.14044 12.9426 4.39043C13.1926 4.64041 13.333 4.97947 13.333 5.333V10.667Z" fill="white"/>
</g>
</svg>
